<svg width="247" height="58" viewBox="0 0 247 58" fill="none" xmlns="http://www.w3.org/2000/svg">
    <path d="M6.675 22.634c3.316 0 5.862.586 7.637 1.76 1.776 1.173 2.664 3.094 2.664 5.764 0 2.69-.898 4.632-2.695 5.827-1.798 1.195-4.365 1.792-7.702 1.792H5.006v7.491H0V23.215a28.145 28.145 0 0 1 3.466-.452c1.22-.086 2.29-.129 3.209-.129zm.32 4.294c-.363 0-.721.01-1.074.033a37.14 37.14 0 0 0-.915.064v6.458h1.573c1.732 0 3.038-.237 3.915-.71.877-.474 1.316-1.357 1.316-2.648 0-.624-.113-1.141-.338-1.55a2.565 2.565 0 0 0-.962-.985c-.418-.247-.926-.42-1.525-.516a12.555 12.555 0 0 0-1.99-.146zM30.294 32.813c-.441-.105-.96-.215-1.555-.332a10.032 10.032 0 0 0-1.92-.173c-.308 0-.678.025-1.108.078a6.81 6.81 0 0 0-.976.174v12.708h-4.93V29.526a30.771 30.771 0 0 1 3.126-.838c1.202-.263 2.542-.395 4.02-.395.266 0 .586.016.96.047a21.197 21.197 0 0 1 2.25.316c.375.074.696.163.96.27l-.827 3.887zM48.097 37.455c0 1.372-.197 2.628-.591 3.767-.395 1.14-.963 2.114-1.708 2.922a7.69 7.69 0 0 1-2.676 1.876c-1.04.442-2.205.663-3.497.663-1.27 0-2.424-.221-3.463-.663a7.681 7.681 0 0 1-2.676-1.876c-.745-.808-1.325-1.782-1.741-2.922-.416-1.14-.624-2.395-.624-3.767 0-1.373.214-2.623.64-3.751.427-1.13 1.018-2.092 1.774-2.888a7.958 7.958 0 0 1 2.692-1.86c1.04-.442 2.173-.663 3.398-.663 1.249 0 2.392.22 3.431.663a7.794 7.794 0 0 1 2.677 1.86c.744.796 1.324 1.759 1.74 2.888.416 1.128.624 2.378.624 3.75zm-4.991 0c0-1.527-.301-2.728-.903-3.602-.602-.875-1.46-1.311-2.578-1.311-1.116 0-1.98.436-2.593 1.31-.613.875-.92 2.076-.92 3.603 0 1.526.307 2.738.92 3.634.612.897 1.477 1.345 2.593 1.345 1.117 0 1.976-.448 2.578-1.345.602-.896.903-2.108.903-3.634zM61.652 37.027c0-1.44-.329-2.593-.987-3.46-.657-.866-1.633-1.299-2.928-1.299-.424 0-.816.016-1.177.047-.36.032-.658.068-.891.11v8.42c.297.189.684.346 1.162.471.477.125.96.188 1.448.188 2.248 0 3.373-1.492 3.373-4.477zm4.837-.125c0 1.273-.16 2.431-.478 3.474-.318 1.044-.785 1.941-1.4 2.693a6.322 6.322 0 0 1-2.291 1.753c-.912.417-1.963.626-3.15.626a8.682 8.682 0 0 1-1.846-.187 8.965 8.965 0 0 1-1.655-.533v6.199h-4.741V29.23a18.68 18.68 0 0 1 1.463-.36 25.68 25.68 0 0 1 1.735-.297 34.71 34.71 0 0 1 1.845-.204 21.963 21.963 0 0 1 1.798-.077c1.38 0 2.61.203 3.692.61 1.081.407 1.994.981 2.736 1.722.743.74 1.31 1.643 1.703 2.708.393 1.064.588 2.254.588 3.569zM67.903 37.621c0-1.55.225-2.905.677-4.067.452-1.162 1.045-2.13 1.78-2.905a7.377 7.377 0 0 1 2.535-1.759 7.586 7.586 0 0 1 2.946-.597c2.352 0 4.21.757 5.575 2.273 1.365 1.516 2.048 3.746 2.048 6.69 0 .287-.01.602-.032.945-.021.343-.042.648-.063.913H72.722c.106 1.018.557 1.826 1.355 2.423.798.598 1.87.897 3.213.897.86 0 1.706-.083 2.536-.25.829-.165 1.506-.37 2.03-.613l.631 4.016a6.264 6.264 0 0 1-1.008.399c-.42.133-.887.249-1.402.349-.514.099-1.065.182-1.653.249-.588.066-1.176.099-1.764.099-1.491 0-2.788-.232-3.89-.697-1.103-.465-2.017-1.1-2.741-1.909-.725-.808-1.26-1.764-1.606-2.871-.347-1.106-.52-2.302-.52-3.585zm11.024-1.893c-.02-.42-.089-.83-.204-1.228a3.118 3.118 0 0 0-.536-1.062 2.858 2.858 0 0 0-.913-.763c-.367-.2-.825-.3-1.37-.3-.525 0-.977.095-1.355.283a2.824 2.824 0 0 0-.945.746c-.252.31-.446.67-.583 1.08a7.4 7.4 0 0 0-.299 1.244h6.205zM98.197 32.813a39.26 39.26 0 0 0-1.556-.332 10.027 10.027 0 0 0-1.919-.173 9.25 9.25 0 0 0-1.108.078c-.43.053-.756.11-.976.174v12.708h-4.931V29.526a30.774 30.774 0 0 1 3.127-.838c1.203-.263 2.543-.395 4.02-.395.265 0 .585.016.96.047a21.151 21.151 0 0 1 2.25.316c.376.074.695.163.96.27l-.827 3.887zM100.439 23.417l4.832-.783v5.063h5.804v4.05h-5.804v6.042c0 1.023.178 1.84.534 2.45.357.61 1.076.915 2.157.915.518 0 1.054-.05 1.605-.148a8.242 8.242 0 0 0 1.508-.408l.681 3.788a13.67 13.67 0 0 1-1.946.622c-.713.173-1.589.26-2.626.26-1.319 0-2.411-.18-3.276-.538-.865-.36-1.556-.86-2.075-1.503-.519-.642-.881-1.42-1.086-2.335-.205-.915-.308-1.927-.308-3.038V23.417zM130.146 28.293a145.46 145.46 0 0 1-2.999 9.072 108.758 108.758 0 0 1-3.414 8.214c-.447.954-.893 1.766-1.34 2.435-.447.668-.936 1.22-1.468 1.655a5.168 5.168 0 0 1-1.803.955c-.67.202-1.452.303-2.345.303-.744 0-1.431-.07-2.059-.208-.627-.137-1.143-.291-1.547-.46l.83-3.79c.489.17.925.288 1.308.351.382.064.787.096 1.212.096.851 0 1.505-.229 1.963-.685.457-.456.845-1.088 1.164-1.894-1.084-2.122-2.17-4.505-3.254-7.147-1.085-2.642-2.106-5.608-3.063-8.897h5.041c.213.827.462 1.723.75 2.69a121.92 121.92 0 0 0 1.882 5.81c.33.933.644 1.782.942 2.546.276-.764.564-1.613.861-2.547.299-.934.59-1.894.878-2.881.287-.987.563-1.963.829-2.929.266-.966.506-1.862.719-2.69h4.913zM156.716 45.268c-3.585 0-6.316-.98-8.193-2.942-1.877-1.962-2.816-4.748-2.816-8.359 0-1.795.286-3.397.859-4.806.573-1.408 1.358-2.598 2.355-3.569.997-.97 2.184-1.705 3.563-2.206 1.379-.501 2.874-.752 4.486-.752.933 0 1.782.068 2.546.204.763.135 1.431.292 2.004.47a10.004 10.004 0 0 1 2.259.986l-1.432 3.944c-.679-.355-1.468-.657-2.37-.908-.902-.25-1.925-.375-3.07-.375-.764 0-1.512.125-2.244.375a5.067 5.067 0 0 0-1.94 1.206c-.563.552-1.013 1.267-1.353 2.144-.339.877-.509 1.94-.509 3.193 0 1.002.111 1.936.335 2.802.222.866.583 1.613 1.081 2.238.499.627 1.151 1.122 1.957 1.488.806.364 1.781.547 2.927.547a13.58 13.58 0 0 0 3.468-.422 8.144 8.144 0 0 0 1.177-.392c.339-.146.647-.281.923-.407l1.368 3.913c-.7.418-1.686.793-2.959 1.128-1.272.334-2.747.5-4.422.5zM177.417 31.398a39.24 39.24 0 0 0-1.555-.331 10.033 10.033 0 0 0-1.92-.174c-.308 0-.678.026-1.108.079-.43.052-.756.11-.976.173v12.709h-4.931V28.11a30.878 30.878 0 0 1 3.127-.837c1.203-.264 2.543-.396 4.021-.396.265 0 .585.016.959.047a21.31 21.31 0 0 1 2.251.316c.375.074.695.164.959.27l-.827 3.887zM178.244 36.206c0-1.55.226-2.904.677-4.066.452-1.162 1.045-2.13 1.78-2.905a7.383 7.383 0 0 1 2.536-1.76 7.58 7.58 0 0 1 2.945-.597c2.352 0 4.211.758 5.576 2.273 1.365 1.516 2.047 3.746 2.047 6.69 0 .287-.01.602-.031.946-.022.343-.042.647-.063.913h-10.647c.105 1.018.556 1.826 1.354 2.423.798.598 1.869.897 3.213.897.862 0 1.706-.083 2.536-.25.829-.166 1.506-.37 2.031-.614l.631 4.017a6.317 6.317 0 0 1-1.008.398c-.421.133-.888.25-1.402.35-.514.098-1.066.182-1.654.248-.588.067-1.176.1-1.764.1-1.491 0-2.788-.233-3.89-.698-1.102-.465-2.016-1.1-2.74-1.908-.725-.808-1.261-1.765-1.607-2.871-.346-1.107-.52-2.303-.52-3.586zm11.025-1.892a5.384 5.384 0 0 0-.204-1.228 3.136 3.136 0 0 0-.536-1.062 2.874 2.874 0 0 0-.913-.764c-.368-.2-.825-.3-1.371-.3-.525 0-.976.095-1.355.283a2.832 2.832 0 0 0-.944.747c-.252.31-.447.67-.583 1.079a7.35 7.35 0 0 0-.299 1.245h6.205zM200.056 36.232c0 1.485.329 2.679.987 3.582.657.904 1.633 1.356 2.928 1.356.424 0 .816-.016 1.177-.05.36-.031.658-.069.891-.112v-8.746c-.297-.194-.685-.355-1.162-.484a5.52 5.52 0 0 0-1.447-.194c-2.25 0-3.374 1.55-3.374 4.648zM210.78 44.3c-.424.129-.912.253-1.463.37-.552.12-1.13.221-1.735.308-.604.086-1.219.155-1.845.21-.626.053-1.226.08-1.799.08-1.379 0-2.609-.204-3.691-.613-1.082-.408-1.994-.995-2.736-1.759-.743-.764-1.311-1.688-1.703-2.776-.393-1.086-.589-2.307-.589-3.662 0-1.378.17-2.62.51-3.728.339-1.108.827-2.049 1.463-2.824a6.282 6.282 0 0 1 2.339-1.775c.923-.409 1.978-.613 3.166-.613.658 0 1.247.064 1.767.194a9.52 9.52 0 0 1 1.575.548v-7.681l4.741-.774V44.3zM220.237 43.854H215.5V27.34h4.737v16.514zm.445-21.287c0 .858-.281 1.533-.842 2.026a2.922 2.922 0 0 1-1.987.738 2.922 2.922 0 0 1-1.987-.738c-.561-.493-.842-1.168-.842-2.026 0-.858.281-1.533.842-2.024a2.918 2.918 0 0 1 1.987-.738c.763 0 1.425.246 1.987.738.561.491.842 1.166.842 2.024zM223.512 23.417l4.832-.783v5.063h5.804v4.05h-5.804v6.042c0 1.023.178 1.84.535 2.45.357.61 1.076.915 2.156.915.52 0 1.054-.05 1.605-.148a8.198 8.198 0 0 0 1.508-.408l.681 3.788a13.63 13.63 0 0 1-1.946.622c-.712.173-1.588.26-2.626.26-1.318 0-2.411-.18-3.275-.538-.865-.36-1.557-.86-2.075-1.503-.519-.642-.882-1.42-1.087-2.335-.205-.915-.308-1.927-.308-3.038V23.417zM135.807 45.267a2.83 2.83 0 1 0 0-5.659 2.83 2.83 0 0 0 0 5.659z" fill="#fff"/>
    <path fill-rule="evenodd" clip-rule="evenodd" d="M139.013 22.06v12.162a3.023 3.023 0 0 1-3.018 3.024 3.023 3.023 0 0 1-3.018-3.025V19.838c0-1.323.857-2.492 2.117-2.887L188.661.138a3.004 3.004 0 0 1 1.803 0l53.568 16.813a3.024 3.024 0 0 1 2.116 2.887v35.138A3.021 3.021 0 0 1 243.13 58H135.995a3.021 3.021 0 0 1-3.018-3.024v-3.593a3.023 3.023 0 0 1 3.018-3.025 3.022 3.022 0 0 1 3.018 3.025v.567h101.1V22.06l-50.55-15.866-50.55 15.865z" fill="#3EE1C7"/>
</svg>
