<svg width="368" height="368" viewBox="0 0 368 368" fill="none" xmlns="http://www.w3.org/2000/svg">
    <path d="m287.552 164.765-56.12-4.196a34.07 34.07 0 0 0-15.907 2.622l-14.928 6.363a48.625 48.625 0 0 1-7.342 10.034c-7.202 7.691-34.82 21.99-49.398 24.996a14.832 14.832 0 0 1-9.999-1.748 209.069 209.069 0 0 1-20.724 14.652s13.635 38.841 64.4 16.886l40.379-17.515-8.845 21.22c.245 12.132.315 28.038-.489 38.64a51.59 51.59 0 0 0 29.123.278c3.809-25.87 6.711-66.703-3.148-82.121l48.247-.454c6.079-10.95 5.544-17.177 4.751-29.657zM197.912 149.732l5.874-25.836a2.192 2.192 0 0 0-.278-1.651 2.19 2.19 0 0 0-3.988.673l-6.922 30.45" fill="#3EE1C7"/>
    <path d="m197.912 149.732 5.874-25.836a2.192 2.192 0 0 0-.278-1.651 2.19 2.19 0 0 0-3.988.673l-6.922 30.45c.871 3.211 3.209 7.517 5.314-3.636zM193.367 51.842a21.925 21.925 0 0 1-13.531 20.251 21.92 21.92 0 1 1-8.388-42.17 21.935 21.935 0 0 1 21.919 21.92z" fill="#3EE1C7"/>
    <path d="M307.832 167.526a87.507 87.507 0 0 1-16.781 25.836c3.881.594 7.761 1.472 11.083 1.993a42.58 42.58 0 0 0 9.645-5.835c9.2-7.412 28.152-16.606 32.303-21.85-7.517-1.087-25.905-.353-36.25-.144zM236.718 298.279a87.372 87.372 0 0 1-26.465-15.804c-.454 3.882-1.154 7.798-1.573 11.154a43.033 43.033 0 0 0 6.188 9.439c7.728 8.88 17.622 27.479 23 31.464.843-7.551-.554-25.905-1.15-36.253zM116.7 187.454c-.699.349-1.433.664-2.167.979a156.206 156.206 0 0 1-9.653-12.586c.315.736 9.964 21.605 25.975 29.471 1.049-.839 2.063-1.643 3.007-2.447-5.982-3.251-12.198-9.544-17.162-15.417zM208.645 220.841s.315 7.376.489 17.2l8.775-21.186-9.264 3.986zM114.498 95.719s-6.122-11.47-20.522-4.475c-14.4 6.994-11.607 35.1-11.607 35.1s-12.797 6.118-19.614 16.431c-10.558 15.977-5.242 40.099 27.589 40.099a71.896 71.896 0 0 1-1.608-21.011c.874-12.411 5.384-23.773 9.37-35.415 5.081-15.049 3.99-13.846 5.768-19.367-4.233-4.021.804-8.845 3.076-4.932.962 1.583 1.192 1.645 1.961 1.886 4.166 1.305 11.725 2.76 15.824 1.403.006-.107.356-9.72-10.237-9.72z" fill="#00467E"/>
    <path d="m106.736 131.308-3.74-9.369a22.946 22.946 0 0 0 4.37 4.44 41.693 41.693 0 0 0-.63 4.929z" fill="#00467E"/>
    <path d="M156.205 290.063a6.104 6.104 0 0 1-5.944 7.325 6.112 6.112 0 0 1-5.658-3.735 6.095 6.095 0 0 1 1.286-6.657 6.098 6.098 0 0 1 3.114-1.687 6.055 6.055 0 0 1 4.593.875 6.078 6.078 0 0 1 2.609 3.879z" fill="#3EE1C7"/>
    <path d="M153.443 270.94a16.224 16.224 0 1 1 7.385 27.65 16.226 16.226 0 0 1-8.154-4.716 16.232 16.232 0 0 1 .769-22.934z" stroke="#00467E" stroke-width="1.38" stroke-linecap="round" stroke-linejoin="round"/>
    <path d="M193.367 51.842a21.925 21.925 0 0 1-13.531 20.251 21.92 21.92 0 1 1-8.388-42.17 21.935 21.935 0 0 1 21.919 21.92z" stroke="#00467E" stroke-width="1.38"/>
    <path d="m241.298 233.601 18.074 9.125a15.691 15.691 0 0 0 21.048-6.923l20.696-40.973M314.226 168.89l12.76-25.241a15.687 15.687 0 0 0-6.922-21.046L192.348 58.079m-72.397 83.969 37.054-73.4" stroke="#00467E" stroke-width="1.38" stroke-linecap="round" stroke-linejoin="round"/>
    <path d="m327.581 130.714-106.665 17.2-39.427-76.571M162.472 239.439a88.033 88.033 0 0 1-28.339 20.748 88.05 88.05 0 0 1-34.195 8.024 88.071 88.071 0 0 1-83.871-54.057A88.071 88.071 0 0 1 36.5 116.485M106.737 134.21c-.099-2.65.126-5.302.669-7.898 4.262 2.851 7.784 1.079 10.369-2.609a32.876 32.876 0 0 0 4.903-17.881" stroke="#00467E" stroke-width="1.38" stroke-linecap="round" stroke-linejoin="round"/>
    <path d="M104.88 175.847a156.158 156.158 0 0 0 9.649 12.586 52.562 52.562 0 0 0 15.007-9.557 60.43 60.43 0 0 0 8.766-9.916 268.585 268.585 0 0 1-16.744-24.612 22.925 22.925 0 0 0-10.696-9.292 12.572 12.572 0 0 0-6.013-.769 9.968 9.968 0 0 1-8.8-1.895M287.831 167.492c4.755.174 14.194.139 19.962.035a87.531 87.531 0 0 1-16.744 25.835c-1.783-.28-5.558-.664-7.271-.769M344.08 167.666c1.993.28 3.273.736 3.426 1.364.968 3.971-19.813 13.616-29.157 21.151a34.502 34.502 0 0 1-9.016 5.314c-2.377.436-4.817.39-7.176-.14a42.284 42.284 0 0 0 9.657-5.835c9.174-7.397 28.108-16.575 32.266-21.854z" stroke="#00467E" stroke-width="1.38" stroke-linecap="round" stroke-linejoin="round"/>
    <path d="M307.832 167.526c10.348-.209 28.737-.943 36.248.14-4.16 5.244-23.101 14.448-32.303 21.85a42.32 42.32 0 0 1-9.649 5.839c-3.321-.525-7.202-1.399-11.082-1.993a87.542 87.542 0 0 0 16.786-25.836zM236.298 277.408c-.314 5.244 0 12.97.42 20.906a87.602 87.602 0 0 1-26.43-15.802c.21-1.783.35-3.566.385-5.244M237.872 334.532c-.21 2.024-.591 3.294-1.224 3.496-3.899 1.242-14.339-19.329-22.2-28.387a34.39 34.39 0 0 1-5.663-8.845 18.136 18.136 0 0 1-.105-7.176 42.491 42.491 0 0 0 6.188 9.439c7.728 8.919 17.62 27.488 23.004 31.473z" stroke="#00467E" stroke-width="1.38" stroke-linecap="round" stroke-linejoin="round"/>
    <path d="M236.718 298.279c.594 10.348 1.993 28.704 1.154 36.248-5.384-3.986-15.302-22.564-23-31.464a42.7 42.7 0 0 1-6.188-9.439c.419-3.357 1.118-7.274 1.573-11.155a87.334 87.334 0 0 0 26.461 15.81zM130.859 205.318c-16.012-7.866-25.661-28.737-25.979-29.471M116.7 187.454c4.968 5.873 11.191 12.195 17.166 15.456a14.958 14.958 0 0 0 9.998 1.713c14.591-2.944 42.197-17.305 49.399-24.997 13.041-13.928 11.971-24.54 10.837-42.266-.46-7.202-1.365-7.029-2.447-3.68-1.61 4.997-3.641 17.112-5.314 21.885a2.12 2.12 0 0 1-.909 1.153c-1.288.736-2.099-.874-2.76-3.146-.701-2.412-1.201-5.625-1.853-7.544-1.142-3.384-3.474-6.468-3.845 3.461-.218 5.838-.232 15.894-6.573 19.578a111.466 111.466 0 0 1-15.382 7.271 66.545 66.545 0 0 1-17.096 4.195c-3.181.17-7.446-3.461-11.501-9.089" stroke="#00467E" stroke-width="1.38" stroke-linecap="round" stroke-linejoin="round"/>
    <path d="m197.912 149.732 5.874-25.836a2.192 2.192 0 0 0-.278-1.651 2.19 2.19 0 0 0-3.988.673l-6.922 30.45M208.656 220.874c5.454-2.343 9.263-4.019 9.263-4.019l-8.785 21.186M133.866 202.906a205.379 205.379 0 0 1-20.732 14.582 55.979 55.979 0 0 1-22.79-34.614M200.569 169.554l16.396-6.957a27.928 27.928 0 0 1 12.866-2.132l57.721 4.3c1.299 12.079 1.144 19.027-4.755 29.646l-48.177.454M114.498 95.719s-6.122-11.47-20.522-4.475c-14.4 6.994-11.607 35.1-11.607 35.1s-12.797 6.118-19.614 16.431c-10.558 15.977-5.242 40.099 27.589 40.099a71.896 71.896 0 0 1-1.608-21.011c.874-12.411 5.384-23.773 9.37-35.415.908-2.691 3.076-9.264 3.81-11.993.664-2.55.979-4.335 1.958-7.374-4.233-4.021.804-8.845 3.076-4.932 1.003 1.656 1.198 1.561 2.296 1.923 2.72.894 10.047 2.924 15.499 1.288-.004.006.346-9.641-10.247-9.641zM45.485 101.73a178.443 178.443 0 0 0-34.75 22.027 2.186 2.186 0 0 0-1.032 1.754 2.194 2.194 0 0 0 .857 1.847l7.97 6.327c4.83-6.335 11.38-11.689 17.96-17.22a131.74 131.74 0 0 0-13.249 20.95l8.576 6.793a2.207 2.207 0 0 0 3.462-1.014l13.492-38.866a2.21 2.21 0 0 0-.707-2.483 2.212 2.212 0 0 0-2.58-.115zM282.517 35.098c-6.957-3.463-14.753 1.472-13.634 8.74l-3.251 3.005 4.474.35c3.951 6.677 13.984 6.958 17.271.384a9.491 9.491 0 0 0-4.86-12.479zM350.829 103.55l-6.537 22.514M358.8 118.058l-22.514-6.537M209.169 265.17a104.153 104.153 0 0 0 30.031.552" stroke="#00467E" stroke-width="1.38" stroke-linecap="round" stroke-linejoin="round"/>
    <path d="M274.197 163.856a51.567 51.567 0 0 1-4.86 30.695M156.205 290.063a6.096 6.096 0 0 1-2.56 6.278 6.112 6.112 0 0 1-3.384 1.047 6.112 6.112 0 0 1-3.395-1.01 6.095 6.095 0 0 1-2.629-6.249 6.098 6.098 0 0 1 4.766-4.82 6.055 6.055 0 0 1 4.593.875 6.065 6.065 0 0 1 2.609 3.879zM113.134 217.488s13.635 38.841 64.4 16.886l31.122-13.5c.386 14.687 1.2 39.543-.037 55.834a51.605 51.605 0 0 0 29.122.28c3.811-25.872 6.756-66.711-3.112-82.123-12.784-19.969-52.09-7.167-52.09-7.167M107.406 126.312a19.252 19.252 0 0 1-4.383-4.337l3.714 9.333" stroke="#00467E" stroke-width="1.38" stroke-linecap="round" stroke-linejoin="round"/>
    <path d="M163.25 52.75 168.5 58l12.25-12.25" stroke="#00467E" stroke-width="2" stroke-linecap="round" stroke-linejoin="round"/>
</svg>
