<svg width="26" height="24" viewBox="0 0 26 24" fill="none" xmlns="http://www.w3.org/2000/svg">
    <path d="M22.625 10.25V6.4c0-1.54 0-2.31-.3-2.898A2.75 2.75 0 0 0 21.124 2.3c-.589-.3-1.359-.3-2.899-.3H6.4c-1.54 0-2.31 0-2.898.3A2.75 2.75 0 0 0 2.3 3.502C2 4.09 2 4.86 2 6.4v7.7c0 1.54 0 2.31.3 2.899A2.75 2.75 0 0 0 3.502 18.2c.588.3 1.358.3 2.898.3h9.35M7.5 13H13M7.5 7.5h9.625" stroke="#3E8CF7" stroke-width="2.475" stroke-linecap="round"/>
    <circle cx="22" cy="16" r="1.625" stroke="#3E8CF7" stroke-width="2.75"/>
    <path d="M24 22.623s-.688-1.375-2.75-1.375c-2.063 0-2.75 1.375-2.75 1.375" stroke="#3E8CF7" stroke-width="2.475" stroke-linecap="round"/>
</svg>
