<svg width="34" height="34" viewBox="0 0 34 34" fill="none" xmlns="http://www.w3.org/2000/svg">
    <circle cx="17" cy="17" r="16.25" fill="#fff" stroke="#DFE6EB" stroke-width="1.5"/>
    <path d="m19.137 20.737-.53.53 1.06 1.061.53-.53-1.06-1.06zm4.797-3.736.53.53.53-.53-.53-.53-.53.53zm-3.737-4.797-.53-.53-1.06 1.06.53.53 1.06-1.06zm0 9.594 4.267-4.267-1.06-1.06-4.267 4.266 1.06 1.06zm4.267-5.327-4.267-4.267-1.06 1.06 4.266 4.267 1.06-1.06zm-.53-.22H10.067v1.5h13.867v-1.5z" fill="#00467E"/>
</svg>
