<svg width="24" height="24" viewBox="0 0 24 24" fill="none" xmlns="http://www.w3.org/2000/svg">
    <path fill-rule="evenodd" clip-rule="evenodd" d="M10.25 3a.75.75 0 0 1 .75-.75h5a.75.75 0 0 1 .75.75v18a.75.75 0 0 1-.75.75h-5a.75.75 0 0 1-.75-.75V3zm1.5.75v16.5h3.5V3.75h-3.5z" fill="#fff"/>
    <path fill-rule="evenodd" clip-rule="evenodd" d="M15.25 3a.75.75 0 0 1 .75-.75h5a.75.75 0 0 1 .75.75v18a.75.75 0 0 1-.75.75h-5a.75.75 0 0 1-.75-.75V3zm1.5.75v16.5h3.5V3.75h-3.5zM4.536 2.41a.75.75 0 0 1 .557-.154l4 .5a.75.75 0 0 1 .653.819l-1.75 17.5a.75.75 0 0 1-.834.67l-4.25-.5a.75.75 0 0 1-.657-.83l2-17.5a.75.75 0 0 1 .281-.505zM5.66 3.838 3.83 19.843l2.75.323L8.18 4.153l-2.522-.315z" fill="#fff"/>
    <path fill-rule="evenodd" clip-rule="evenodd" d="M18.5 6.75a.75.75 0 0 1 .75.75V9a.75.75 0 0 1-1.5 0V7.5a.75.75 0 0 1 .75-.75zM13.5 6.75a.75.75 0 0 1 .75.75V9a.75.75 0 0 1-1.5 0V7.5a.75.75 0 0 1 .75-.75z" fill="#fff"/>
</svg>
