<svg width="24" height="24" viewBox="0 0 24 24" fill="none" xmlns="http://www.w3.org/2000/svg">
    <path fill-rule="evenodd" clip-rule="evenodd" d="M18.064 9.834a1.733 1.733 0 1 1 0-3.465 1.733 1.733 0 0 1 0 3.465zm-7.797-1.732a1.733 1.733 0 1 0 3.466 0 1.733 1.733 0 0 0-3.466 0zm-6.064 0a1.733 1.733 0 1 0 3.465 0 1.733 1.733 0 0 0-3.465 0zM18.064 17.631a1.733 1.733 0 1 1 0-3.465 1.733 1.733 0 0 1 0 3.465zM10.267 15.9a1.733 1.733 0 1 0 3.466 0 1.733 1.733 0 0 0-3.466 0zm-6.064 0a1.733 1.733 0 1 0 3.465 0 1.733 1.733 0 0 0-3.465 0z" fill="#949AA5"/>
</svg>
