<svg width="34" height="34" viewBox="0 0 34 34" fill="none" xmlns="http://www.w3.org/2000/svg">
    <circle cx="17" cy="17" r="16.25" stroke="#DFE6EB" stroke-width="1.5"/>
    <path fill-rule="evenodd" clip-rule="evenodd" d="M19.709 16.584c0-1.033.837-1.871 1.87-1.871h.005c1.035 0 1.875.84 1.875 1.875v5.438c0 1.57-1.332 3.516-3.566 3.516h-4.784c-1.227 0-2.374-.915-3.159-1.89-.795-.988-1.408-2.27-1.408-3.318 0-1.264.408-2.3 1.34-2.94a.625.625 0 0 1 .707 1.032c-.492.337-.797.917-.797 1.908 0 .644.424 1.654 1.132 2.534.719.894 1.544 1.424 2.185 1.424h4.784c1.425 0 2.316-1.262 2.316-2.266v-5.438a.625.625 0 0 0-.625-.625h-.004a.621.621 0 0 0-.621.621.625.625 0 0 1-1.25 0z" fill="#00467E"/>
    <path fill-rule="evenodd" clip-rule="evenodd" d="M14.074 9.713a.624.624 0 0 0-.624.624v8.516a.625.625 0 1 1-1.25 0v-8.516c0-1.035.84-1.874 1.874-1.874h.005a1.88 1.88 0 0 1 1.876 1.88v6.488a.625.625 0 0 1-1.25 0v-6.487a.63.63 0 0 0-.63-.631z" fill="#00467E"/>
    <path fill-rule="evenodd" clip-rule="evenodd" d="M16.586 14.291a.631.631 0 0 0-.632.631v1.664a.625.625 0 1 1-1.25 0v-1.663a1.882 1.882 0 0 1 3.763 0v1.663a.625.625 0 1 1-1.25 0v-1.663a.631.631 0 0 0-.631-.632z" fill="#00467E"/>
    <path fill-rule="evenodd" clip-rule="evenodd" d="M19.083 14.71a.625.625 0 0 0-.625.626v1.13a.625.625 0 0 1-1.25 0v-1.13a1.875 1.875 0 0 1 3.75 0v1.25a.625.625 0 1 1-1.25 0v-1.25a.625.625 0 0 0-.625-.625z" fill="#00467E"/>
</svg>
