<svg width="44" height="44" viewBox="0 0 44 44" fill="none" xmlns="http://www.w3.org/2000/svg">
    <path fill-rule="evenodd" clip-rule="evenodd" d="M33.356 9.352c-.792.141-1.868.498-3.41 1.012L14.34 15.566c-2.18.727-3.74 1.248-4.763 1.746-1.086.529-1.195.856-1.195 1.021 0 .166.11.493 1.195 1.021 1.024.498 2.583 1.02 4.763 1.746l4.325 1.442.133.044c.722.24 1.312.436 1.747.87.434.434.63 1.025.87 1.747l.044.132 1.441 4.326c.727 2.18 1.249 3.739 1.746 4.762.529 1.086.856 1.196 1.021 1.196.166 0 .493-.11 1.021-1.196.498-1.023 1.02-2.583 1.746-4.762l5.203-15.608c.514-1.542.87-2.618 1.011-3.41.142-.797.016-1.048-.113-1.177-.13-.13-.38-.255-1.178-.114zm-.263-1.476c.921-.164 1.83-.142 2.501.53.672.671.694 1.58.53 2.5-.163.914-.556 2.094-1.044 3.559l-.021.063-5.203 15.607-.02.062c-.702 2.105-1.253 3.76-1.8 4.882-.52 1.071-1.213 2.04-2.37 2.04-1.156 0-1.849-.969-2.37-2.04-.546-1.123-1.097-2.777-1.799-4.882l-.02-.062-1.442-4.325c-.309-.925-.4-1.142-.552-1.293-.151-.152-.368-.244-1.293-.552l-4.325-1.442-.062-.02c-2.105-.702-3.76-1.253-4.883-1.8-1.07-.52-2.04-1.214-2.04-2.37 0-1.156.97-1.849 2.04-2.37 1.123-.546 2.778-1.097 4.883-1.8l.062-.02 15.607-5.202.063-.021c1.465-.488 2.645-.882 3.558-1.044z" fill="#3EE1C7"/>
</svg>
