<svg width="44" height="44" viewBox="0 0 44 44" fill="none" xmlns="http://www.w3.org/2000/svg">
    <path fill-rule="evenodd" clip-rule="evenodd" d="M33.356 9.353c-.792.14-1.867.497-3.41 1.011L14.34 15.567c-2.18.726-3.74 1.248-4.762 1.746-1.086.528-1.196.856-1.196 1.02 0 .166.11.493 1.196 1.022 1.023.497 2.582 1.02 4.762 1.746l4.326 1.441.133.045c.721.239 1.312.435 1.746.87.434.434.63 1.024.87 1.746l.044.133L22.9 29.66c.726 2.18 1.248 3.74 1.746 4.763.528 1.086.855 1.196 1.02 1.196.166 0 .493-.11 1.022-1.196.498-1.024 1.02-2.583 1.746-4.763l5.202-15.608c.514-1.542.87-2.617 1.011-3.409.142-.797.016-1.048-.113-1.178-.13-.129-.38-.255-1.178-.113zm-.263-1.477c.921-.164 1.83-.142 2.502.53.671.671.693 1.58.53 2.5-.163.914-.557 2.095-1.045 3.56l-.02.062-5.203 15.607-.02.062c-.703 2.105-1.254 3.76-1.8 4.883-.521 1.07-1.214 2.04-2.37 2.04-1.157 0-1.85-.97-2.37-2.04-.547-1.123-1.098-2.778-1.8-4.883l-.02-.062-1.442-4.325c-.308-.925-.4-1.141-.552-1.293-.151-.151-.368-.243-1.293-.552l-4.325-1.441-.062-.02c-2.105-.703-3.76-1.254-4.882-1.8-1.071-.521-2.04-1.214-2.04-2.37 0-1.157.969-1.85 2.04-2.37 1.123-.547 2.777-1.098 4.882-1.8l.062-.02L29.472 8.94l.063-.02c1.465-.489 2.645-.882 3.558-1.045z" fill="#222B3A"/>
</svg>
