<svg width="162" height="38" viewBox="0 0 162 38" fill="none" xmlns="http://www.w3.org/2000/svg">
    <path d="M4.373 14.832c2.173 0 3.84.384 5.004 1.153 1.163.768 1.745 2.027 1.745 3.776 0 1.763-.588 3.035-1.766 3.818-1.177.783-2.86 1.175-5.046 1.175H3.28v4.907H0V15.213a18.43 18.43 0 0 1 2.27-.296c.8-.057 1.5-.085 2.103-.085zm.21 2.813c-.238 0-.473.007-.704.022-.231.014-.431.028-.6.042v4.23H4.31c1.135 0 1.99-.154 2.565-.464.575-.31.862-.89.862-1.735 0-.409-.073-.748-.22-1.015a1.68 1.68 0 0 0-.631-.646 2.824 2.824 0 0 0-1-.338 8.217 8.217 0 0 0-1.303-.096zM19.85 21.5c-.29-.068-.63-.14-1.02-.216a6.57 6.57 0 0 0-1.257-.114c-.203 0-.445.016-.727.051a4.463 4.463 0 0 0-.639.114v8.326h-3.23V19.347c.578-.193 1.26-.376 2.048-.549.788-.172 1.666-.259 2.634-.259.174 0 .384.01.63.031a14.07 14.07 0 0 1 1.473.207c.246.049.456.107.63.176l-.543 2.548zM31.513 24.542c0 .899-.13 1.722-.388 2.468a5.378 5.378 0 0 1-1.118 1.914 5.038 5.038 0 0 1-1.754 1.23c-.68.289-1.445.434-2.29.434-.833 0-1.589-.145-2.27-.435a5.035 5.035 0 0 1-1.753-1.229 5.639 5.639 0 0 1-1.14-1.914c-.273-.746-.41-1.57-.41-2.468 0-.9.14-1.718.42-2.458.28-.74.667-1.37 1.162-1.892a5.214 5.214 0 0 1 1.764-1.218 5.626 5.626 0 0 1 2.226-.435c.818 0 1.567.145 2.248.435.681.29 1.266.696 1.754 1.218a5.54 5.54 0 0 1 1.14 1.892c.272.74.409 1.559.409 2.458zm-3.27 0c0-1-.198-1.787-.592-2.36-.394-.573-.957-.859-1.689-.859-.731 0-1.298.286-1.7.859-.4.573-.602 1.36-.602 2.36 0 1 .201 1.794.603 2.381.401.588.968.881 1.7.881.731 0 1.294-.293 1.688-.881.394-.587.591-1.381.591-2.381zM40.394 24.262c0-.944-.216-1.7-.647-2.267-.43-.568-1.07-.851-1.918-.851a9.1 9.1 0 0 0-.772.03 6.75 6.75 0 0 0-.583.073v5.517c.194.123.448.226.76.308.313.082.63.123.95.123 1.473 0 2.21-.978 2.21-2.933zm3.168-.082c0 .833-.104 1.592-.312 2.276a5.102 5.102 0 0 1-.917 1.764 4.142 4.142 0 0 1-1.502 1.149c-.598.273-1.286.41-2.064.41-.43 0-.834-.041-1.21-.123a5.876 5.876 0 0 1-1.083-.349v4.061h-3.107V19.154c.278-.082.598-.16.96-.236.36-.075.74-.14 1.136-.194.395-.055.799-.1 1.209-.134.41-.034.802-.05 1.178-.05.903 0 1.71.132 2.418.4a4.981 4.981 0 0 1 1.793 1.127 4.822 4.822 0 0 1 1.116 1.774c.257.698.385 1.477.385 2.339zM44.488 24.65c0-1.014.148-1.902.444-2.664.296-.761.685-1.396 1.166-1.903a4.834 4.834 0 0 1 1.661-1.152 4.97 4.97 0 0 1 1.93-.392c1.541 0 2.759.496 3.653 1.49.894.993 1.341 2.454 1.341 4.382 0 .188-.006.395-.02.62-.014.225-.028.424-.042.598h-6.975c.069.667.365 1.197.887 1.588.523.391 1.225.587 2.105.587.564 0 1.118-.054 1.662-.163.543-.109.987-.243 1.33-.402l.414 2.631a4.105 4.105 0 0 1-.661.261 8.331 8.331 0 0 1-.918.229c-.337.065-.698.12-1.083.163-.386.043-.77.065-1.156.065-.977 0-1.827-.152-2.55-.457-.722-.304-1.32-.72-1.795-1.25A5.025 5.025 0 0 1 44.83 27a7.81 7.81 0 0 1-.34-2.35zm7.223-1.24a3.527 3.527 0 0 0-.133-.804 2.042 2.042 0 0 0-.352-.696 1.87 1.87 0 0 0-.598-.5c-.24-.13-.54-.196-.898-.196-.344 0-.64.062-.887.185a1.85 1.85 0 0 0-.619.49 2.222 2.222 0 0 0-.382.706c-.09.268-.155.54-.196.816h4.065zM64.338 21.5a25.663 25.663 0 0 0-1.02-.216 6.567 6.567 0 0 0-1.257-.114c-.202 0-.444.016-.726.051a4.458 4.458 0 0 0-.64.114v8.326h-3.23V19.347c.578-.193 1.26-.376 2.049-.549.787-.172 1.666-.259 2.634-.259.173 0 .383.01.628.031a14.102 14.102 0 0 1 1.475.207c.246.049.455.107.628.176l-.541 2.548zM65.805 15.345l3.165-.513v3.317h3.803v2.653H68.97v3.96c0 .67.117 1.205.35 1.604.234.4.706.6 1.414.6a6.037 6.037 0 0 0 2.04-.365l.445 2.483a8.955 8.955 0 0 1-1.274.407c-.467.113-1.042.17-1.721.17-.865 0-1.58-.117-2.146-.353-.567-.235-1.02-.563-1.36-.984-.34-.42-.577-.93-.712-1.53a9.102 9.102 0 0 1-.201-1.99v-9.459zM85.266 18.54a95.827 95.827 0 0 1-1.965 5.943 71.33 71.33 0 0 1-2.237 5.381 12.181 12.181 0 0 1-.877 1.596c-.293.438-.614.8-.962 1.084a3.383 3.383 0 0 1-1.181.626c-.44.132-.952.198-1.537.198-.488 0-.937-.045-1.349-.135-.41-.09-.749-.192-1.014-.303l.544-2.482c.32.112.607.188.858.23.25.042.515.062.794.062.557 0 .986-.15 1.285-.448.3-.3.554-.713.763-1.241a62.395 62.395 0 0 1-2.132-4.683c-.71-1.73-1.38-3.674-2.007-5.829h3.303c.14.542.303 1.13.492 1.762a83.13 83.13 0 0 0 1.233 3.807c.216.612.422 1.168.617 1.668.18-.5.37-1.056.564-1.668.196-.612.387-1.241.575-1.888a138.862 138.862 0 0 0 1.014-3.68h3.22zM102.677 29.661c-2.348 0-4.137-.642-5.367-1.928-1.23-1.285-1.845-3.11-1.845-5.476 0-1.176.187-2.225.563-3.149.375-.922.89-1.702 1.542-2.338a6.465 6.465 0 0 1 2.335-1.445c.903-.329 1.883-.493 2.939-.493.612 0 1.168.045 1.668.133.5.09.938.192 1.313.308a6.505 6.505 0 0 1 1.48.646l-.938 2.585a7.923 7.923 0 0 0-1.553-.595c-.591-.164-1.261-.246-2.011-.246-.501 0-.991.082-1.47.246-.48.164-.904.427-1.272.79-.368.362-.663.83-.886 1.404-.222.575-.333 1.272-.333 2.093 0 .656.073 1.268.219 1.835.146.568.382 1.057.708 1.467.327.41.754.735 1.282.974.529.24 1.168.36 1.918.36a8.907 8.907 0 0 0 2.272-.278c.292-.075.549-.16.772-.256.222-.096.424-.185.604-.267l.897 2.564c-.459.274-1.105.52-1.939.739-.834.218-1.8.327-2.898.327zM116.24 20.571a25.87 25.87 0 0 0-1.019-.217 6.574 6.574 0 0 0-1.258-.114c-.202 0-.444.017-.726.051a4.442 4.442 0 0 0-.639.114v8.326h-3.231V18.417a20.15 20.15 0 0 1 2.049-.549c.788-.172 1.666-.259 2.634-.259.174 0 .383.01.629.031a14.087 14.087 0 0 1 1.474.207c.246.049.455.107.629.177l-.542 2.547zM116.781 23.721c0-1.015.148-1.903.444-2.664.296-.762.685-1.396 1.166-1.904a4.846 4.846 0 0 1 1.661-1.152 4.971 4.971 0 0 1 1.93-.392c1.541 0 2.759.497 3.653 1.49.894.993 1.341 2.454 1.341 4.383 0 .188-.006.394-.02.62-.014.224-.028.423-.041.597h-6.976c.069.667.365 1.197.887 1.588.523.392 1.225.588 2.105.588.565 0 1.118-.055 1.662-.164.543-.108.987-.242 1.331-.402l.413 2.631a4.164 4.164 0 0 1-.661.261 8.314 8.314 0 0 1-.918.23c-.337.064-.698.119-1.083.162a10.31 10.31 0 0 1-1.156.065c-.977 0-1.827-.152-2.549-.457-.722-.304-1.321-.72-1.795-1.25a5.024 5.024 0 0 1-1.053-1.881 7.823 7.823 0 0 1-.341-2.349zm7.223-1.24a3.505 3.505 0 0 0-.133-.805 2.052 2.052 0 0 0-.351-.695 1.885 1.885 0 0 0-.599-.5c-.241-.131-.54-.197-.898-.197a1.97 1.97 0 0 0-.887.185 1.855 1.855 0 0 0-.619.49 2.217 2.217 0 0 0-.382.706c-.09.269-.155.54-.196.816h4.065zM131.071 23.74c0 .972.216 1.754.647 2.346.43.592 1.07.888 1.918.888.278 0 .535-.01.771-.032.236-.02.431-.045.584-.074v-5.73a2.668 2.668 0 0 0-.761-.317 3.614 3.614 0 0 0-.948-.127c-1.474 0-2.211 1.015-2.211 3.045zm7.026 5.285c-.277.085-.597.166-.958.243-.362.078-.741.145-1.137.201-.396.057-.799.102-1.209.137-.41.036-.803.053-1.178.053-.904 0-1.709-.133-2.419-.401a4.85 4.85 0 0 1-1.792-1.153 5.005 5.005 0 0 1-1.116-1.818c-.257-.712-.386-1.512-.386-2.4 0-.902.112-1.716.334-2.442.222-.726.542-1.343.959-1.85a4.117 4.117 0 0 1 1.532-1.163c.605-.268 1.296-.402 2.075-.402.431 0 .817.042 1.157.127a6.23 6.23 0 0 1 1.032.36v-5.033l3.106-.507v16.048zM144.295 28.733h-3.104v-10.82h3.104v10.82zm.291-13.947c0 .563-.184 1.005-.552 1.327a1.911 1.911 0 0 1-1.301.484c-.501 0-.934-.162-1.302-.484-.368-.322-.552-.764-.552-1.327 0-.562.184-1.004.552-1.326a1.91 1.91 0 0 1 1.302-.483c.5 0 .933.16 1.301.483.368.322.552.764.552 1.326zM146.441 15.345l3.166-.513v3.317h3.803v2.653h-3.803v3.96c0 .67.117 1.205.35 1.604.235.4.705.6 1.414.6a6.026 6.026 0 0 0 2.039-.365l.446 2.483a8.92 8.92 0 0 1-1.275.407c-.467.113-1.04.17-1.721.17-.863 0-1.579-.117-2.145-.353-.567-.235-1.02-.563-1.36-.984-.34-.42-.577-.93-.712-1.53a9.132 9.132 0 0 1-.202-1.99v-9.459zM88.979 29.66a1.854 1.854 0 1 0 0-3.707 1.854 1.854 0 0 0 0 3.707z" fill="#fff"/>
    <path fill-rule="evenodd" clip-rule="evenodd" d="M91.08 14.453v7.968a1.98 1.98 0 0 1-1.978 1.982 1.98 1.98 0 0 1-1.977-1.982v-9.424c0-.867.561-1.632 1.387-1.891L123.607.09a1.97 1.97 0 0 1 1.182 0l35.096 11.015a1.981 1.981 0 0 1 1.386 1.891V36.02A1.98 1.98 0 0 1 159.294 38H89.102a1.98 1.98 0 0 1-1.977-1.981v-2.355a1.98 1.98 0 0 1 1.977-1.981 1.98 1.98 0 0 1 1.977 1.981v.372h66.238V14.453L124.198 4.058 91.079 14.453z" fill="#3EE1C7"/>
</svg>
