<svg width="44" height="44" viewBox="0 0 44 44" fill="none" xmlns="http://www.w3.org/2000/svg">
<path d="M30.5 29.286H34.1428V25.6431M30.5 14.7146H34.1428V18.3574M13.5 14.7146H9.85714V18.3574M9.85714 25.6431V29.286H13.5M22 26.8574C19.3175 26.8574 17.1429 24.6828 17.1429 22.0003C17.1429 19.3177 19.3175 17.1431 22 17.1431C24.6825 17.1431 26.8571 19.3177 26.8571 22.0003C26.8571 24.6828 24.6825 26.8574 22 26.8574ZM7.42857 9.85742H36.5714C37.9127 9.85742 39 10.9447 39 12.286V31.7146C39 33.0558 37.9127 34.1431 36.5714 34.1431H7.42857C6.08731 34.1431 5 33.0558 5 31.7146V12.286C5 10.9447 6.08731 9.85742 7.42857 9.85742Z" stroke="#3EE1C7" stroke-width="1.5"/>
</svg>
