<svg width="44" height="44" viewBox="0 0 44 44" fill="none" xmlns="http://www.w3.org/2000/svg">
    <path d="m25.167 17.416 13.949 2.77A2.34 2.34 0 0 1 41 22.5v16.15a2.372 2.372 0 0 1-2.375 2.374h-14.25a.784.784 0 0 0 .792-.791v-.792h13.458a.794.794 0 0 0 .792-.791v-16.15a.795.795 0 0 0-.618-.776L25.167 19.03v-1.615z" fill="#222B3A"/>
    <path d="M25.17 40.231a.784.784 0 0 1-.792.792.784.784 0 0 1-.792-.792V18.065c0-.238.11-.46.285-.618a.832.832 0 0 1 .665-.158l.633.127V40.23z" fill="#222B3A"/>
    <path d="M23.58 39.44v.791c0 .444.35.792.792.792H18.04a.784.784 0 0 0 .792-.792v-.791h4.75zM17.253 32.315a.794.794 0 0 0-.792-.792h-4.75a.784.784 0 0 0-.792.792v7.125H9.336v-7.125a2.372 2.372 0 0 1 2.375-2.375h4.75a2.372 2.372 0 0 1 2.375 2.375v7.125h-1.583v-7.125z" fill="#222B3A"/>
    <path d="M10.92 39.44h7.916v.791a.784.784 0 0 1-.792.792h-7.916a.784.784 0 0 1-.792-.792v-.791h1.583z" fill="#222B3A"/>
    <path d="m5.77 3.34 17.402 2.644a2.366 2.366 0 0 1 1.995 2.343v9.088l-.634-.126a.832.832 0 0 0-.665.158.842.842 0 0 0-.285.617V8.327a.8.8 0 0 0-.665-.792l-17.4-2.628c-.048-.016-.095-.016-.143-.016a.747.747 0 0 0-.507.19.757.757 0 0 0-.285.602v32.965c0 .443.364.791.792.791h3.958v.792c0 .443.349.792.792.792h-4.75A2.372 2.372 0 0 1 3 38.648V5.683c0-.697.3-1.362.84-1.805a2.377 2.377 0 0 1 1.93-.539z" fill="#222B3A"/>
</svg>
