<svg width="35" height="34" viewBox="0 0 35 34" fill="none" xmlns="http://www.w3.org/2000/svg">
    <circle cx="17.268" cy="17" r="16.25" stroke="#DFE6EB" stroke-width="1.5"/>
    <path fill-rule="evenodd" clip-rule="evenodd" d="M14.268 10.719a.219.219 0 0 0-.22.219v1.75a.656.656 0 0 1-1.312 0v-1.75c0-.846.686-1.532 1.532-1.532h11.375c.845 0 1.53.686 1.53 1.531v7.876c0 .845-.685 1.53-1.53 1.53h-.875a.656.656 0 1 1 0-1.312h.875c.12 0 .218-.098.218-.218v-7.875a.219.219 0 0 0-.218-.22H14.268z" fill="#00467E"/>
    <path fill-rule="evenodd" clip-rule="evenodd" d="M9.893 15.969a.219.219 0 0 0-.22.219v7.875c0 .12.099.218.22.218h11.375c.12 0 .218-.098.218-.218v-7.875a.219.219 0 0 0-.218-.22H9.893zm-1.532.219c0-.846.686-1.532 1.532-1.532h11.375c.845 0 1.53.686 1.53 1.531v7.875c0 .846-.685 1.532-1.53 1.532H9.893a1.531 1.531 0 0 1-1.532-1.532v-7.875z" fill="#00467E"/>
    <path fill-rule="evenodd" clip-rule="evenodd" d="M8.361 19.25c0-.362.294-.656.657-.656h13.125a.656.656 0 0 1 0 1.312H9.018a.656.656 0 0 1-.657-.656z" fill="#00467E"/>
    <path fill-rule="evenodd" clip-rule="evenodd" d="M22.143 16.406c.362 0 .656.294.656.657v5.25a.656.656 0 0 1-1.313 0v-5.25c0-.363.294-.657.657-.657zM9.018 16.406c.362 0 .656.294.656.657v5.25a.656.656 0 0 1-1.313 0v-5.25c0-.363.294-.657.657-.657zM11.424 21.875c0-.362.294-.656.656-.656h3.5a.656.656 0 0 1 0 1.312h-3.5a.656.656 0 0 1-.656-.656zM17.549 21.875c0-.362.294-.656.656-.656h.875a.656.656 0 0 1 0 1.312h-.875a.656.656 0 0 1-.656-.656z" fill="#00467E"/>
</svg>
