<svg width="34" height="33" viewBox="0 0 34 33" fill="none" xmlns="http://www.w3.org/2000/svg">
    <circle cx="17" cy="16.5" r="15.5" stroke="#DFE6EB" stroke-width="1.329"/>
    <path d="m9.427 24.07.003.003a.777.777 0 0 0 .803.188l4.438-1.505 8.515-8.516a2.776 2.776 0 1 0-3.926-3.926l-8.515 8.516-1.506 4.437a.777.777 0 0 0 .188.804zm10.54-13.049a1.776 1.776 0 0 1 2.512 2.512l-1.12 1.12-2.511-2.512 1.12-1.12zm-8.35 8.35 6.523-6.523 2.512 2.512-6.524 6.523-3.8 1.29 1.289-3.801z" fill="#222B3A"/>
</svg>
