<svg width="44" height="44" viewBox="0 0 44 44" fill="none" xmlns="http://www.w3.org/2000/svg">
<circle cx="22.0013" cy="14.6673" r="7.33333" stroke="#222B3A" stroke-width="1.5" stroke-linecap="round"/>
<path fill-rule="evenodd" clip-rule="evenodd" d="M22.528 28.5909C18.7446 28.4923 15.0278 29.4543 12.1041 31.316C9.17952 33.1783 7.22402 35.834 6.71409 38.8004C6.64391 39.2086 6.91796 39.5964 7.32618 39.6666C7.73441 39.7368 8.12223 39.4627 8.1924 39.0545C8.61662 36.5867 10.2653 34.2652 12.9098 32.5813C15.555 30.8969 18.9712 29.9988 22.4889 30.0904C22.903 30.1011 23.2474 29.7742 23.2582 29.3601C23.269 28.9461 22.942 28.6016 22.528 28.5909Z" fill="#222B3A"/>
<path d="M33 25.666L33 40.3327" stroke="#222B3A" stroke-width="1.5" stroke-linecap="round"/>
<path d="M40.332 33L25.6654 33" stroke="#222B3A" stroke-width="1.5" stroke-linecap="round"/>
</svg>
