<svg width="22" height="26" viewBox="0 0 22 26" fill="none" xmlns="http://www.w3.org/2000/svg">
    <path clip-rule="evenodd" d="M14.706 1.014H6.012a4.993 4.993 0 0 0-5.01 4.873V19.92A4.975 4.975 0 0 0 5.867 25h10.584a5.054 5.054 0 0 0 4.875-5.08V7.91l-6.621-6.896z" stroke="#3E8CF7" stroke-width="1.316" stroke-linecap="round" stroke-linejoin="round"/>
    <path d="M14.367 1v3.802a3.366 3.366 0 0 0 3.358 3.365h3.6" stroke="#3E8CF7" stroke-width="1.316" stroke-linecap="round" stroke-linejoin="round"/>
    <path d="M17.126 14.844c-.266-.268-.856-.41-1.754-.422a14.369 14.369 0 0 0-2.108.158c-.344-.203-.7-.425-.978-.691-.75-.715-1.376-1.708-1.765-2.8.025-.103.047-.192.067-.284 0 0 .423-2.45.31-3.279a.951.951 0 0 0-.054-.235l-.036-.096c-.115-.27-.34-.557-.694-.542l-.213-.007c-.394 0-.715.206-.799.514-.255.965.01 2.408.487 4.277l-.122.304c-.343.854-.772 1.715-1.152 2.473l-.05.098c-.399.798-.76 1.475-1.089 2.048l-.338.184c-.025.013-.605.327-.74.412-1.156.704-1.92 1.504-2.048 2.138-.04.203-.01.462.195.582l.328.168a.97.97 0 0 0 .445.11c.822 0 1.778-1.047 3.094-3.394a30.38 30.38 0 0 1 4.764-1.157c1.155.664 2.576 1.126 3.472 1.126.16 0 .296-.016.408-.046a.696.696 0 0 0 .405-.283c.173-.268.21-.636.162-1.014-.014-.112-.101-.25-.196-.345l-.001.003zM4.84 19.316c.15-.42.743-1.248 1.622-1.983.055-.046.19-.176.315-.297-.918 1.496-1.533 2.093-1.937 2.279v.001zm5.2-12.236c.265 0 .416.68.428 1.32.013.638-.133 1.086-.314 1.418-.15-.491-.223-1.265-.223-1.77 0 0-.011-.968.11-.968zM8.49 15.8c.184-.337.375-.693.571-1.07.478-.923.778-1.644 1.003-2.237a7.382 7.382 0 0 0 1.657 2.102c.08.07.168.141.258.212-1.33.268-2.479.595-3.49.992zm8.383-.077c-.082.052-.314.082-.462.082-.482 0-1.078-.225-1.912-.592.32-.024.615-.037.879-.037.483 0 .626-.002 1.098.121.471.124.477.374.396.425v.001z" fill="#3E8CF7"/>
</svg>
