<svg width="24" height="24" viewBox="0 0 24 24" fill="none" xmlns="http://www.w3.org/2000/svg">
    <path d="m2.899 7.759.88-1.524c.52-.901 1.686-1.22 2.595-.696 1.568.905 2.849.167 2.846-1.648 0-1.04.853-1.898 1.9-1.893l1.994.008c.92-.012 1.662.74 1.675 1.66v.219c-.006 1.81 1.276 2.55 2.849 1.645l.19-.11c.802-.449 1.826-.181 2.275.62l1.003 1.723a1.899 1.899 0 0 1-.689 2.593c-1.573.905-1.572 2.383-.005 3.288.901.52 1.221 1.686.696 2.596l-.88 1.524c-.52.9-1.686 1.22-2.596.695-1.567-.905-2.848-.166-2.845 1.649A1.897 1.897 0 0 1 12.886 22l-1.993-.008c-.92.012-1.663-.74-1.675-1.66v-.22c.006-1.809-1.276-2.549-2.85-1.644l-.19.11c-.801.448-1.825.181-2.274-.621l-1.003-1.722a1.9 1.9 0 0 1 .689-2.594c1.573-.904 1.572-2.383.004-3.288A1.906 1.906 0 0 1 2.9 7.76z" stroke="#fff" stroke-width="1.5" stroke-miterlimit="10" stroke-linecap="round" stroke-linejoin="round"/>
    <path d="M15.25 12a3.25 3.25 0 1 0-6.5 0 3.25 3.25 0 0 0 6.5 0z" stroke="#fff" stroke-width="1.5"/>
</svg>
