<svg width="34" height="34" viewBox="0 0 34 34" fill="none" xmlns="http://www.w3.org/2000/svg">
    <path clip-rule="evenodd" d="M19.253 9.393h-5.478c-1.695 0-3.157 1.374-3.157 3.07v8.841c0 1.792 1.365 3.2 3.157 3.2h6.578c1.696 0 3.07-1.504 3.07-3.2v-7.567l-4.17-4.344z" stroke="#00467E" stroke-width="1.272" stroke-linecap="round" stroke-linejoin="round"/>
    <path d="M19.034 9.38v2.396a2.12 2.12 0 0 0 2.116 2.12c1.083.003 2.192.004 2.267-.001" stroke="#00467E" stroke-width="1.272" stroke-linecap="round" stroke-linejoin="round"/>
    <path d="M13.996 16.868a.528.528 0 1 0 .748.745l-.748-.745zm2.711-1.975.374-.373a.528.528 0 0 0-.748 0l.374.373zm1.964 2.72a.528.528 0 1 0 .748-.745l-.748.745zm-2.492 2.692a.528.528 0 0 0 1.056 0h-1.056zm-1.435-2.692 2.337-2.348-.748-.745-2.337 2.348.748.745zm1.589-2.348 2.338 2.348.748-.745-2.338-2.348-.748.745zm-.154-.372v5.412h1.056v-5.412h-1.056z" fill="#00467E"/>
    <circle cx="17" cy="17" r="16.25" stroke="#DFE6EB" stroke-width="1.5"/>
</svg>
