<svg width="20" height="20" viewBox="0 0 20 20" fill="none" xmlns="http://www.w3.org/2000/svg">
    <path d="M14.167 2.292H5.834a3.542 3.542 0 0 0-3.542 3.541v8.334a3.542 3.542 0 0 0 3.542 3.541h8.333a3.542 3.542 0 0 0 3.542-3.541V5.833a3.542 3.542 0 0 0-3.542-3.541z" stroke="#636465"/>
    <path fill-rule="evenodd" clip-rule="evenodd" d="M13.926 7.467a.625.625 0 0 0-.625-.625h-2.357a.625.625 0 1 0 0 1.25h.848l-2.013 2.013-1.192-1.192a.625.625 0 0 0-.884 0L5.05 11.565a.625.625 0 1 0 .884.884l2.21-2.21 1.192 1.192c.244.244.64.244.884 0l2.455-2.455v.848a.625.625 0 0 0 1.25 0V7.467z" fill="#636465"/>
</svg>
