<svg width="31" height="31" viewBox="0 0 31 31" fill="none" xmlns="http://www.w3.org/2000/svg">
    <path fill-rule="evenodd" clip-rule="evenodd" d="M20.06 6.386c-.558.099-1.316.35-2.403.712L6.661 10.764c-1.536.511-2.634.879-3.355 1.23-.766.372-.843.603-.843.719 0 .116.077.347.843.72.72.35 1.82.717 3.355 1.23l3.047 1.015.094.031c.508.169.925.307 1.23.613.306.306.445.722.613 1.23l.032.094 1.015 3.048c.512 1.535.88 2.634 1.23 3.355.373.765.603.843.72.843.116 0 .347-.078.72-.843.35-.72.717-1.82 1.23-3.355l3.665-10.997c.362-1.086.613-1.844.712-2.402.1-.561.011-.738-.08-.83-.091-.09-.268-.18-.83-.08zm-.186-1.04c.65-.116 1.29-.101 1.762.372.474.474.489 1.114.374 1.762-.115.644-.392 1.476-.736 2.507l-.015.045-3.665 10.996-.015.043c-.494 1.483-.883 2.65-1.268 3.44-.367.755-.855 1.437-1.67 1.437-.814 0-1.302-.682-1.669-1.437-.385-.79-.774-1.957-1.268-3.44l-.014-.043-1.016-3.048c-.217-.651-.282-.804-.389-.91-.106-.107-.26-.172-.91-.39l-3.048-1.015-.044-.014c-1.483-.495-2.648-.883-3.44-1.268-.754-.367-1.437-.855-1.437-1.67s.683-1.303 1.437-1.67c.792-.385 1.957-.773 3.44-1.268l.044-.014 10.996-3.665.044-.015c1.032-.344 1.864-.621 2.507-.736z" fill="#222"/>
    <rect x="14.793" y="11.273" width="14.091" height="14.091" rx="7.045" fill="#fff"/>
    <circle cx="21.839" cy="18.319" r="5.284" stroke="#3EE1C7" stroke-width="1.057"/>
    <path d="m19.49 18.32 1.762 1.761 2.936-3.522" stroke="#3EE1C7" stroke-width="1.057"/>
</svg>
