<svg width="30" height="30" viewBox="0 0 30 30" fill="none" xmlns="http://www.w3.org/2000/svg">
    <circle cx="15" cy="15" r="14" stroke="#DFE6EB" stroke-width="1.313"/>
    <g clip-path="url(#00ee98khaa)">
        <path d="m8.16 21.84.003.002a.702.702 0 0 0 .726.17l4.008-1.36 7.691-7.692a2.507 2.507 0 1 0-3.546-3.546l-7.691 7.692-1.36 4.008a.701.701 0 0 0 .17.726zm9.521-11.787a1.604 1.604 0 0 1 2.269 2.268l-1.012 1.012-2.268-2.269 1.011-1.011zm-7.543 7.542 5.893-5.892 2.268 2.269-5.892 5.892-3.433 1.165 1.165-3.434z" fill="#222B3A"/>
    </g>
    <defs>
        <clipPath id="00ee98khaa">
            <path fill="#fff" transform="translate(7.324 8.227)" d="M0 0h14.452v14.452H0z"/>
        </clipPath>
    </defs>
</svg>
