<svg width="30" height="30" viewBox="0 0 30 30" fill="none" xmlns="http://www.w3.org/2000/svg">
    <circle cx="15" cy="15" r="14" stroke="#DFE6EB" stroke-width="1.313"/>
    <path fill-rule="evenodd" clip-rule="evenodd" d="M17.229 14.658c0-.85.69-1.54 1.54-1.54h.004c.853 0 1.544.69 1.544 1.543v4.479c0 1.292-1.097 2.896-2.937 2.896h-3.939c-1.01 0-1.955-.754-2.602-1.557-.655-.814-1.16-1.87-1.16-2.733 0-1.04.336-1.894 1.105-2.42a.515.515 0 0 1 .582.849c-.405.277-.657.755-.657 1.571 0 .53.349 1.362.932 2.087.592.736 1.272 1.173 1.8 1.173h3.94c1.173 0 1.907-1.039 1.907-1.866V14.66a.515.515 0 0 0-.515-.514h-.003a.512.512 0 0 0-.512.511.515.515 0 0 1-1.03 0z" fill="#00467E"/>
    <path fill-rule="evenodd" clip-rule="evenodd" d="M12.594 8.998a.514.514 0 0 0-.514.514v7.014a.515.515 0 1 1-1.03 0V9.512c0-.852.692-1.543 1.544-1.543h.004a1.549 1.549 0 0 1 1.545 1.549v5.342a.515.515 0 1 1-1.03 0V9.518a.52.52 0 0 0-.518-.52z" fill="#00467E"/>
    <path fill-rule="evenodd" clip-rule="evenodd" d="M14.659 12.772a.52.52 0 0 0-.52.52v1.37a.515.515 0 0 1-1.03 0v-1.37a1.55 1.55 0 0 1 3.1 0v1.37a.515.515 0 1 1-1.03 0v-1.37a.52.52 0 0 0-.52-.52z" fill="#00467E"/>
    <path fill-rule="evenodd" clip-rule="evenodd" d="M16.716 13.115a.515.515 0 0 0-.515.515v.93a.515.515 0 1 1-1.03 0v-.93a1.544 1.544 0 1 1 3.09 0v1.03a.515.515 0 0 1-1.03 0v-1.03a.515.515 0 0 0-.515-.515z" fill="#00467E"/>
</svg>
