<svg width="20" height="20" viewBox="0 0 20 20" fill="none" xmlns="http://www.w3.org/2000/svg">
    <g clip-path="url(#cp7uit9c8a)">
        <path d="M20 0H0v20h20V0z" fill="#fff" fill-opacity=".01"/>
        <path d="M7.619 17.988a8.331 8.331 0 0 1-3.624-2.21 2.5 2.5 0 0 0-2.16-4.1A8.37 8.37 0 0 1 2.05 7.5h.035a2.5 2.5 0 0 0 2.243-3.604 8.32 8.32 0 0 1 3.445-1.928 2.5 2.5 0 0 0 4.457 0 8.32 8.32 0 0 1 3.444 1.928A2.5 2.5 0 0 0 17.952 7.5a8.371 8.371 0 0 1 .212 4.179 2.5 2.5 0 0 0-2.16 4.1 8.332 8.332 0 0 1-3.622 2.21 2.501 2.501 0 0 0-4.763 0z" stroke="#636465" stroke-linejoin="round"/>
        <path d="M10 12.917a2.917 2.917 0 1 0 0-5.834 2.917 2.917 0 0 0 0 5.834z" stroke="#636465" stroke-linejoin="round"/>
    </g>
    <defs>
        <clipPath id="cp7uit9c8a">
            <path fill="#fff" d="M0 0h20v20H0z"/>
        </clipPath>
    </defs>
</svg>
